ply
format ascii 1.0
comment Created by Blender 2.82 (sub 7) - www.blender.org, source file: ''
element vertex 9
property float x
property float y
property float z
property float nx
property float ny
property float nz
property float s
property float t
element face 4
property list uchar uint vertex_indices
end_header
-1.000000 -1.000000 0.000000 0.000000 0.000000 1.000000 0.000000 0.000000
0.000000 -1.000000 0.000000 0.000000 0.000000 1.000000 0.500000 0.000000
0.000000 -0.000000 0.000000 0.000000 0.000000 1.000000 0.500000 0.500000
-1.000000 0.000000 0.000000 0.000000 0.000000 1.000000 0.000000 0.500000
1.000000 -1.000000 0.000000 0.000000 0.000000 1.000000 1.000000 0.000000
1.000000 0.000000 0.000000 0.000000 0.000000 1.000000 1.000000 0.500000
1.000000 1.000000 0.000000 0.000000 0.000000 1.000000 1.000000 1.000000
0.000000 1.000000 0.000000 0.000000 0.000000 1.000000 0.500000 1.000000
-1.000000 1.000000 0.000000 0.000000 0.000000 1.000000 0.000000 1.000000
4 0 1 2 3
4 1 4 5 2
4 2 5 6 7
4 3 2 7 8
